<?xml version="1.0" encoding="UTF-8"?>
<!DOCTYPE svg PUBLIC "-//W3C//DTD SVG 1.1//EN" "http://www.w3.org/Graphics/SVG/1.1/DTD/svg11.dtd">
<!-- Creator: CorelDRAW -->
<svg xmlns="http://www.w3.org/2000/svg" xml:space="preserve" width="0.853331in" height="0.853331in" style="shape-rendering:geometricPrecision; text-rendering:geometricPrecision; image-rendering:optimizeQuality; fill-rule:evenodd; clip-rule:evenodd"
viewBox="0 0 0.853331 0.853331"
 xmlns:xlink="http://www.w3.org/1999/xlink"
 version="1.1">
 <defs>
  <style type="text/css">
   <![CDATA[
    .fil0 {fill:#FEFEFE}
    .fil1 {fill:#143965}
   ]]>
  </style>
 </defs>
 <g id="Layer_x0020_1">
  <metadata id="CorelCorpID_0Corel-Layer"/>
  <rect class="fil0" width="0.853331" height="0.853331"/>
  <g id="_463124752">
   <g id="__x0023_143965ff">
    <path id="_463125712" class="fil1" d="M0.71011 0.319295c-0.000917323,-0.0103504 0.00687795,-0.0214173 0.0176378,-0.0221102 0.00924016,-0.000362205 0.0185079,-0.000181102 0.0277756,-0.000338583 -0.00211811,0.0486102 -0.00422047,0.0972205 -0.00634252,0.145831 -0.00955118,0 -0.0191063,7.87402e-006 -0.0286535,0 -0.00347638,-0.0411339 -0.00696457,-0.0822559 -0.0104173,-0.123382z"/>
    <path id="_463124944" class="fil1" d="M0.572433 0.339669c0.0229921,-0.0150945 0.0543622,-0.0153976 0.078126,-0.0018622 0.0175591,0.00983858 0.0308976,0.0265512 0.037378,0.0455276 0.00907874,0.0262323 0.00484646,0.0567992 -0.0114646,0.0793228 -0.0130945,0.0185984 -0.0344606,0.0313465 -0.0572402,0.0330591 -0.015878,0.00134252 -0.0319409,-0.00300394 -0.0454409,-0.0113346 -5.11811e-005,0.017126 5.11811e-005,0.034252 -5.11811e-005,0.051378 0.000153543,0.0102795 -0.00837795,0.0204646 -0.0189528,0.0206299 -0.00685433,0.000181102 -0.0137165,3.54331e-005 -0.0205787,7.08661e-005 -7.87402e-006,-0.0467402 3.54331e-005,-0.0934803 -1.9685e-005,-0.14022 -0.00174803,-0.029815 0.0129567,-0.0603819 0.0382441,-0.0765709m0.0356102 0.0296732c-0.0159213,0.0026063 -0.0288937,0.0158543 -0.0325315,0.0313701 -0.00316535,0.0126102 -0.000637795,0.0266024 0.00711417,0.0371024 0.00660236,0.00912992 0.0170827,0.0154724 0.0283583,0.016563 0.0116142,0.00127165 0.0235512,-0.00330709 0.0316575,-0.0116496 0.00951969,-0.00954331 0.0139173,-0.0236614 0.012126,-0.0369528 -0.00152362,-0.0123307 -0.00848031,-0.0239882 -0.0189882,-0.0307283 -0.00809055,-0.00530709 -0.0182087,-0.0073937 -0.0277362,-0.00570472z"/>
    <path id="_463124512" class="fil1" d="M0.275244 0.342827c0.0137598,-0.0087126 0.0307677,-0.0120906 0.0468268,-0.00937402 0.0151024,0.00246063 0.0291811,0.010378 0.0393346,0.0218031 0.0105827,0.0117402 0.0169882,0.0271535 0.0178622,0.0429409 0.000688976,0.00774409 0.000291339,0.0155315 0.000397638,0.0232953 0,0.0255827 0,0.0511535 0,0.0767362 -0.00732283,-5.51181e-005 -0.0146535,0.000110236 -0.0219724,-8.66142e-005 -0.00574016,-0.000141732 -0.0114606,-0.00286614 -0.0147717,-0.00762598 -0.00290945,-0.00390945 -0.00397244,-0.0088622 -0.00394094,-0.0136654 -2.3622e-005,-0.0224921 -7.87402e-006,-0.0449843 -7.87402e-006,-0.0674646 4.33071e-005,-0.00465748 3.54331e-005,-0.00933858 -0.000779528,-0.0139331 -0.00181496,-0.00940945 -0.00876378,-0.0177323 -0.0178189,-0.0209528 -0.00673228,-0.00244882 -0.0144409,-0.00205118 -0.0208622,0.00111024 -0.0099685,0.00477559 -0.016315,0.0158189 -0.0157756,0.0268268 7.87402e-006,0.0319331 7.87402e-006,0.0638661 0,0.0957992 -0.0137598,-7.87402e-006 -0.0275118,-7.87402e-006 -0.0412717,-7.87402e-006 0,-0.0261614 0,-0.0523307 0,-0.0784921 0.000173228,-0.0112165 -0.000779528,-0.0226417 0.00198031,-0.0336299 0.00408661,-0.0177087 0.0153425,-0.0336732 0.0307992,-0.0432795z"/>
    <path id="_463124272" class="fil1" d="M0.40915 0.345996c0.0135591,-0.0116063 0.0323386,-0.0139094 0.0495512,-0.0134252 0.0161929,0.000547244 0.0334567,0.00271654 0.0469055,0.0125315 0.00994488,0.00714173 0.0156378,0.0192638 0.0155157,0.0314331 8.66142e-005,0.0405591 1.9685e-005,0.0811299 3.54331e-005,0.121693 -0.00694882,-5.51181e-005 -0.0138976,0.000102362 -0.0208386,-7.08661e-005 -0.00538976,-0.000102362 -0.0103346,-0.00285433 -0.0140551,-0.00662205 -0.00744882,0.0030315 -0.0153701,0.00479528 -0.023374,0.00545276 -0.014,0.00124803 -0.0285945,0.00266535 -0.0421457,-0.00206693 -0.00905118,-0.0032126 -0.0180079,-0.00806693 -0.0238937,-0.0158622 -0.00754724,-0.0102559 -0.00905906,-0.0235748 -0.00842913,-0.0359409 0.000547244,-0.0107638 0.00385039,-0.0221732 0.0122795,-0.0294252 0.0121535,-0.0101339 0.0280079,-0.0140945 0.043315,-0.0164409 0.00918898,-0.00174803 0.0187165,-0.00203543 0.0275709,-0.00527953 0.00346063,-0.00134252 0.00694882,-0.0032874 0.00899213,-0.00651575 0.00309843,-0.00498425 0.00151575,-0.0121575 -0.00322835,-0.0155512 -0.00484646,-0.00354724 -0.0110591,-0.00444094 -0.0169094,-0.00465748 -0.00683858,2.75591e-005 -0.0138622,0.000452756 -0.0202598,0.00305512 -0.00382283,0.00150787 -0.0066811,0.00470866 -0.00842913,0.0083622 -0.0131614,7.87402e-006 -0.0263346,7.87402e-006 -0.0395039,0 0.00138583,-0.0119252 0.00748425,-0.0231929 0.0169016,-0.0306693m0.048685 0.0823937c-0.00733858,0.00146063 -0.0149606,0.00201575 -0.0219291,0.00494094 -0.0040315,0.00166142 -0.00770866,0.00454331 -0.00958661,0.00855906 -0.00344488,0.00676772 -0.00251181,0.0162874 0.00399606,0.0208976 0.00733858,0.00474409 0.0166772,0.0046811 0.0250276,0.00342126 0.0104803,-0.0015748 0.0207362,-0.00798031 0.0249331,-0.018 0.00363386,-0.00851575 0.00221654,-0.0179685 0.0025,-0.0269606 -0.00799606,0.00335827 -0.0164567,0.00544488 -0.0249409,0.00714173z"/>
    <path id="_463124824" class="fil1" d="M0.112791 0.35252c0.0103268,-0.0128268 0.0270984,-0.0185551 0.0430787,-0.0195945 0.0182717,-0.000940945 0.0376969,0.000728346 0.0535787,0.0106299 0.0145039,0.00906693 0.0223976,0.0262047 0.0229843,0.0429646 -0.00877559,-2.3622e-005 -0.0175512,7.08661e-005 -0.026315,-4.33071e-005 -0.00550394,-0.000102362 -0.0108268,-0.0028622 -0.0141142,-0.00726772 -0.00315354,-0.00449213 -0.00688189,-0.00898425 -0.0121102,-0.0110866 -0.00704331,-0.00288189 -0.0149016,-0.00293307 -0.0223504,-0.00204331 -0.00489764,0.000728346 -0.0105157,0.00207874 -0.0131732,0.00670866 -0.00201575,0.00352362 -0.00307874,0.00855906 -0.000165354,0.0118976 0.00420866,0.00503937 0.0107756,0.00704724 0.0167992,0.00901181 0.0169685,0.00496457 0.0347638,0.00748425 0.0509449,0.0149173 0.00734646,0.00335827 0.0144882,0.0078937 0.0189803,0.0147835 0.00677559,0.00971654 0.00755512,0.0222402 0.00588189,0.0336378 -0.00170472,0.0125551 -0.00842913,0.024378 -0.0186496,0.0319331 -0.0124961,0.00900787 -0.028185,0.0119055 -0.0432598,0.0128504 -0.0154724,0.000759843 -0.0314567,5.90551e-005 -0.0460315,-0.00568504 -0.0118976,-0.00465748 -0.022248,-0.0138819 -0.026937,-0.0259213 -0.00322047,-0.00787402 -0.00411417,-0.0164606 -0.00412992,-0.0248976 0.0135079,-7.87402e-006 0.0270197,-7.87402e-006 0.0405354,0 0.000318898,0.0067874 0.00280315,0.0138976 0.00844488,0.018063 0.00782283,0.00557087 0.0178465,0.00677559 0.0272087,0.00632677 0.00611024,-0.000503937 0.0124291,-0.00203543 0.0174134,-0.00575591 0.00426772,-0.00324409 0.00625591,-0.00949213 0.00382283,-0.0144173 -0.00202362,-0.00396457 -0.00606299,-0.0063189 -0.00997638,-0.00808268 -0.00935433,-0.00418898 -0.0197205,-0.00487402 -0.0294331,-0.00787795 -0.012878,-0.00351181 -0.0260551,-0.00723228 -0.0372362,-0.0147795 -0.00842126,-0.00582283 -0.0147126,-0.0148661 -0.0163307,-0.0250787 -0.00247638,-0.014374 0.00102756,-0.0299606 0.0105394,-0.0411929z"/>
    <path id="_463124488" class="fil1" d="M0.714106 0.457917c0.0128622,0 0.0257283,0 0.0385906,7.87402e-006 -1.9685e-005,0.00833465 2.3622e-005,0.0166772 -1.9685e-005,0.0250197 -4.33071e-005,0.00388583 -0.000692913,0.00804724 -0.00336614,0.0110433 -0.00275984,0.0031378 -0.00710236,0.00413386 -0.0111181,0.00420472 -0.0080315,8.66142e-005 -0.0160551,7.87402e-006 -0.0240787,3.54331e-005 -1.5748e-005,-0.0134331 -7.87402e-006,-0.026874 -7.87402e-006,-0.040311z"/>
   </g>
  </g>
 </g>
</svg>
