<svg width="76" height="29" viewBox="0 0 76 29" fill="none" xmlns="http://www.w3.org/2000/svg">
<path fill-rule="evenodd" clip-rule="evenodd" d="M75.9847 0L75.2119 15.9479H71.7675L70.4906 2.32184C70.4906 1.67806 70.7172 1.12918 71.167 0.677328C71.6203 0.226078 72.1689 0 72.8163 0H75.9847ZM73.946 22.1645H71.3633V17.7974H75.5899V20.5191C75.5899 21.6169 75.0428 22.1645 73.946 22.1645ZM59.6204 17.5223C57.028 17.5223 54.9277 15.4265 54.9277 12.8321C54.9277 10.244 57.028 8.14246 59.6204 8.14246C62.2124 8.14246 64.31 10.244 64.31 12.8321C64.31 15.4265 62.2124 17.5223 59.6204 17.5223ZM68.4926 11.0053C67.6297 6.82104 63.9212 3.67438 59.48 3.67438C59.2122 3.67438 58.9486 3.6907 58.6878 3.71488C58.5236 3.72772 58.3645 3.75024 58.2033 3.77305L58.2033 3.77305L58.0945 3.78832L58.0296 3.79715C57.9488 3.80802 57.8675 3.81897 57.7883 3.83517C57.6124 3.86872 57.4389 3.90952 57.2652 3.95184C57.2112 3.96611 57.1573 3.9793 57.1034 3.99251L57.1033 3.99253C57.0362 4.00896 56.9689 4.02542 56.9012 4.04402C56.7571 4.08754 56.615 4.13651 56.4745 4.18577L56.4459 4.19556L56.4459 4.19557C56.3081 4.24278 56.1694 4.29031 56.0317 4.34657C55.9268 4.39009 55.8247 4.43301 55.7189 4.48016C55.5387 4.56267 55.3592 4.647 55.1857 4.73828L55.1422 4.76235C55.0929 4.78959 55.0452 4.81601 54.9965 4.84315C54.7816 4.96042 54.5706 5.08888 54.3675 5.22247L54.3531 5.23274L54.3457 5.2379C54.3321 5.24728 54.3195 5.25602 54.3059 5.26781C51.8737 6.92199 50.2764 9.71291 50.2764 12.878C50.2764 12.9122 50.2788 12.9471 50.2813 12.9822L50.2813 12.9826C50.2829 13.0049 50.2845 13.0274 50.2854 13.0497C50.2869 13.0711 50.2897 13.0924 50.2924 13.1139C50.2952 13.1359 50.2981 13.1582 50.2996 13.1809C50.2996 13.1894 50.2985 13.1984 50.2973 13.208C50.2963 13.2156 50.2953 13.2237 50.2948 13.2322C50.2885 13.2513 50.2872 13.2697 50.2872 13.2897V28.6802H52.5885C53.2208 28.6802 53.7606 28.452 54.2128 28.0005C54.6619 27.5501 54.8901 27.0073 54.8901 26.3765V20.8497V20.7808C56.2445 21.5627 57.7932 22.046 59.4718 22.046C64.5565 22.046 68.6779 17.9246 68.6779 12.8369C68.6779 12.2091 68.6147 11.601 68.4926 11.0053ZM38.4388 18.3585C38.8638 18.685 39.4716 18.846 40.2686 18.846C41.5795 18.846 42.6125 18.5205 43.3603 17.8695C44.1107 17.2245 44.4867 16.3323 44.4867 15.1949V13.6719C43.8303 13.9539 42.9169 14.2193 41.743 14.4632C41.5057 14.5125 41.2472 14.5537 40.98 14.5963C39.9727 14.7568 38.8419 14.937 38.2602 15.6453C37.6403 16.3979 37.5877 17.7015 38.4388 18.3585ZM46.9236 4.91987C48.2305 5.82176 48.8885 7.08393 48.8885 8.70789V14.8706C48.8885 14.8821 48.8869 14.8926 48.8853 14.903C48.8837 14.9132 48.8822 14.9233 48.8822 14.9341V22.3772H46.5803C45.9504 22.3772 45.4082 22.1502 44.956 21.7023C44.9463 21.6909 44.9379 21.6796 44.9295 21.6684L44.9292 21.668L44.9292 21.668C44.9163 21.6507 44.9036 21.6336 44.8868 21.617C44.1439 21.928 43.3662 22.1281 42.5556 22.2149C41.4962 22.3279 40.5614 22.3844 39.7487 22.3844C38.1226 22.3844 36.7018 21.9437 35.4813 21.0621C34.2639 20.1817 33.6533 18.727 33.6533 16.6974C33.6533 14.8032 34.2076 13.4483 35.3132 12.6377C36.9115 11.4595 38.8906 11.1352 40.8035 10.8441C40.9127 10.8276 41.0382 10.8111 41.1755 10.793L41.1755 10.793L41.1756 10.793C42.3599 10.637 44.4177 10.3659 44.4177 8.98293C44.4177 6.96999 40.9894 7.17642 39.7487 7.62676C39.2503 7.80811 38.8906 8.14451 38.6636 8.6417H34.1281C34.3074 7.2411 34.9397 6.09076 36.0247 5.18977C37.2422 4.15096 38.9807 3.6308 41.2357 3.6308C43.7625 3.6308 45.6606 4.06331 46.9236 4.91987ZM32.5616 11.3251C32.5093 7.04199 29.0299 3.58765 24.7359 3.58765C20.4099 3.58765 16.9063 7.09367 16.9063 11.4176H16.9075C16.9069 11.4347 16.905 11.4512 16.903 11.4678L16.903 11.4678V11.4678C16.9007 11.4872 16.8984 11.5066 16.8984 11.5267V22.0699H21.627V11.2386C21.627 9.50649 23.0267 8.10135 24.7637 8.10135C26.4941 8.10135 27.8995 9.50649 27.8995 11.2386C27.9008 11.2585 27.9035 11.2772 27.9062 11.2957C27.9098 11.3205 27.9134 11.345 27.9134 11.3716V19.7719C27.9134 20.4483 28.1286 21.0008 28.5548 21.4261C28.9837 21.8562 29.5362 22.0699 30.212 22.0699H32.5773V11.5267C32.5773 11.4845 32.573 11.4425 32.5686 11.4005L32.5686 11.4005L32.5685 11.4003C32.5659 11.3753 32.5633 11.3502 32.5616 11.3251ZM4.60257 16.086H0V16.2915C0 18.2791 0.656776 19.7876 1.96247 20.8267C3.22675 21.8631 5.14449 22.3845 7.71628 22.3845C10.4247 22.3845 12.4555 21.8846 13.8086 20.895C15.2548 19.8118 15.9772 18.2791 15.9772 16.2915C15.9772 15.9261 15.9406 15.5501 15.8678 15.1899C15.6529 14.1498 15.0378 13.2383 14.155 12.6474C13.2993 12.0768 12.2814 11.7153 11.303 11.4164C10.609 11.2021 9.9008 11.0444 9.19262 10.8866C8.65421 10.7667 8.11581 10.6468 7.5836 10.5021C6.9643 10.3328 6.33926 10.1575 5.78434 9.82837C5.49691 9.65549 5.07558 9.29521 5.07558 8.91196C5.07558 8.37034 5.28141 7.96443 5.6846 7.69302C6.13857 7.42402 6.81348 7.28801 7.71628 7.28801C8.66503 7.28801 9.40976 7.49233 9.95259 7.89703C10.0422 7.98831 10.1323 8.07838 10.2224 8.16849C10.3125 8.2586 10.4026 8.34874 10.4924 8.44016C10.9421 9.20514 11.5974 9.58839 12.4555 9.58839H15.3682C15.2763 7.78429 14.5766 6.31902 13.2676 5.18983C11.8688 4.15102 9.9955 3.63086 7.65039 3.63086C5.48331 3.63086 3.72515 4.15102 2.36959 5.18983C1.06057 6.31902 0.406518 7.73865 0.406518 9.45479C0.406518 10.8085 0.85807 11.8906 1.76148 12.7039C2.57089 13.5145 4.17399 14.216 6.56594 14.8033C6.97307 14.939 7.58179 15.0723 8.39361 15.2104C10.2902 15.6103 11.2377 16.2229 11.2377 17.036C11.2377 17.5752 10.9669 18.0053 10.4247 18.3223C9.83924 18.6382 9.13774 18.7968 8.32712 18.7968C7.19733 18.7968 6.29544 18.5699 5.61841 18.1207C4.98672 17.6665 4.64911 16.9915 4.60257 16.086Z" fill="#143965"/>
</svg>
