<?xml version="1.0" encoding="utf-8"?>
<!-- Generator: Adobe Illustrator 27.9.0, SVG Export Plug-In . SVG Version: 6.00 Build 0)  -->
<svg version="1.1" id="Layer_1" xmlns="http://www.w3.org/2000/svg" xmlns:xlink="http://www.w3.org/1999/xlink" x="0px" y="0px"
	 viewBox="0 0 1600 1600" style="enable-background:new 0 0 1600 1600;" xml:space="preserve" width="71" height="71">
<style type="text/css">
	.st0{fill:#062D4E;}
	.st1{fill:#1B844A;}
	.st2{fill:#FFCA4D;}
	.st3{fill:#3D5CCF;}
</style>
<g>
	<g>
		<g>
			<g>
				<path class="st0" d="M765.5,1549.2c-70.4-32.5-126.5-75.8-167.6-131.8c-41.3-55.4-62.9-117.7-65.5-186h242.7
					c4.1,47.9,27,88,68.9,120.3c41.9,32.5,94,47.9,157.5,47.9c65.5,0,117.1-12.8,152.8-37.9c36.6-25,54.8-58.2,54.8-97.4
					c0-42.6-20.3-73.6-60.8-94.6c-40.7-20.3-104.9-43.2-192-67.6c-85.2-22.9-154.1-46-207.6-67.6s-99.3-55.4-138.7-100.8
					c-39.2-45.4-58.9-104.9-58.9-178.5c0-60.1,17.5-115.6,53.5-165.7c35.1-50.1,86.5-89.9,152.8-118.4
					C824,442.1,900.4,428,986.8,428c128.4,0,232.6,32.5,311,97.4c78.3,64.8,120.9,154.1,126.5,266.5h-234.1
					c-4.1-50.7-24.4-91.2-61.4-120.9c-37.2-30.4-87.3-45.4-150-45.4c-61.4,0-108.9,11.6-141.9,35.1c-33.2,22.9-49.4,54.1-49.4,92.7
					c0,30.4,10.9,55.4,33.2,75.8c21.6,20.3,48.6,36.6,80.5,47.9c31.9,11.3,78.3,26.3,140,43.9c82.4,21.6,149.4,43.9,202.2,67
					c52.6,22.3,98,56.1,136.5,99.3c38.5,43.9,58.2,102.1,59.5,174.4c0,64.2-17.5,121.8-53.5,172.5c-36,50.7-85.8,90.5-150.7,119
					c-64.8,29.1-141.3,43.2-229.2,43.2C916.2,1597.4,836.6,1581.8,765.5,1549.2z"/>
			</g>
			<g>
				<circle class="st1" cx="566.7" cy="351.2" r="75.1"/>
				<path class="st0" d="M279.3,852.8c-25-1.3-47.9-16.3-58.9-40.7c-15.6-34.5,0-74.3,34.5-89.9l89.5-39.8
					c34.5-14.8,74.3,0,89.9,34.5c15.6,34.5,0,74.3-34.5,89.9l-89.2,39.8C300.2,851.5,289.5,853.7,279.3,852.8z"/>
				<path class="st2" d="M787.1,340.5c-2.8,0-6-0.6-8.8-1.3c-37.2-6-62.3-41.9-55.4-79.2L758,70.6c6.8-37.2,42.6-61.4,79.2-54.8
					c37.2,6.8,61.4,42.6,54.8,79.2l-34.7,189.4C850.7,318.8,820.3,342.4,787.1,340.5z"/>
				<path class="st3" d="M421.4,592.6c-7.5,0-14.8-1.3-22.3-4.7l-223.9-89.2c-34.5-14.1-51.4-54.1-37.9-88.6
					c14.1-35.1,54.1-52,88.6-37.9L449.8,462c35.1,13.5,52,53.5,37.9,88C476.8,577.8,449.8,594.1,421.4,592.6z"/>
				<path class="st1" d="M438.3,253.1c-20.3-0.6-39.8-10.9-52-29.1l-80.5-113.4c-21.6-30.4-14.1-73,16.3-94.6s73-14.1,94.6,16.3
					l79.8,113.6c21.6,30.4,14.1,73-16.3,94.6C467.4,249.9,452.4,254,438.3,253.1z"/>
			</g>
		</g>
	</g>
</g>
</svg>
